<svg width="114" height="114" viewBox="0 0 114 114" fill="none" xmlns="http://www.w3.org/2000/svg">
<g id="trust 1">
<g id="Group">
<g id="Group_2">
<path id="Vector" d="M110.8 18.5751C110.8 14.2709 110.066 10.0469 108.618 6.01973C108.113 4.61611 106.557 3.84639 105.149 4.30595C103.15 4.95855 100.634 3.78093 97.9716 2.53405C95.4355 1.34618 92.5606 0 89.5338 0C86.507 0 83.6318 1.34618 81.0956 2.53383C78.4333 3.78048 75.9186 4.95811 73.9178 4.30573C72.5099 3.84705 70.954 4.61611 70.4497 6.01996C69.0018 10.0465 68.2674 14.2707 68.2674 18.5751C68.2674 19.2041 68.2886 19.8264 68.3202 20.4447C62.9279 18.2482 57.0353 17.0332 50.8633 17.0332C25.2652 17.0332 4.43947 37.8589 4.43947 63.457C4.43947 69.3102 5.53316 74.9111 7.51926 80.0732L4.1587 83.4338C2.88199 84.7107 2.88199 86.7885 4.1587 88.0657L29.1338 113.041C29.7524 113.659 30.5751 114 31.4499 114C32.3247 114 33.1472 113.659 33.766 113.041L38.5791 108.227C42.4934 109.303 46.6119 109.881 50.8631 109.881C55.1143 109.881 59.2327 109.303 63.147 108.227L67.9602 113.04C68.5787 113.659 69.4014 114 70.2762 114C71.1511 114 71.9736 113.659 72.5923 113.04L82.1567 103.476C82.8089 102.824 82.8089 101.766 82.1567 101.114C81.5044 100.462 80.4472 100.462 79.795 101.114L70.2762 110.633L61.5662 101.923L86.4502 77.0393L95.1601 85.7494L85.3053 95.6039C84.6532 96.2561 84.6532 97.3135 85.3053 97.9654C85.9577 98.6176 87.0149 98.6176 87.667 97.9654L97.5672 88.0652C98.1858 87.4465 98.5266 86.624 98.5266 85.7492C98.5266 84.8741 98.186 84.0516 97.5672 83.4331L94.2069 80.0728C96.193 74.9107 97.2867 69.3098 97.2867 63.4566C97.2867 57.8225 96.2725 52.4224 94.4255 47.4222C105.021 40.6704 110.8 30.5602 110.8 18.5751ZM31.4501 110.633L6.56606 85.7496L15.2759 77.0397L40.16 101.924L31.4501 110.633ZM48.6599 45.5927H51.9559L55.0668 48.7036C55.6782 49.3152 56.0047 50.1284 55.9855 50.9934C55.9666 51.8575 55.6032 52.6566 54.9626 53.2431C53.7429 54.3593 51.7501 54.2669 50.5204 53.0367L39.4816 41.9979C38.2576 40.7737 38.2576 38.7823 39.4813 37.5581C39.942 37.0976 40.5113 36.8131 41.1072 36.7C41.1029 36.7786 41.0951 36.8563 41.0951 36.9358V38.0279C41.0951 42.1992 44.4887 45.5927 48.6599 45.5927ZM44.435 38.0279V36.9358C44.435 36.4056 44.8665 35.9743 45.3964 35.9743H53.9836C55.1047 35.9743 56.1158 36.5695 56.6724 37.494L51.9131 42.2533H48.6599C46.3302 42.2528 44.435 40.3576 44.435 38.0279ZM49.5254 56.7649C50.1247 57.3643 50.4512 58.1614 50.4447 59.0092C50.438 59.8571 50.0989 60.6491 49.4902 61.2392C48.2665 62.425 46.2904 62.4097 45.0858 61.2046L32.6803 48.7991H32.6801C32.0871 48.2062 31.7605 47.4178 31.7605 46.5792C31.7605 45.7407 32.0871 44.9523 32.6803 44.3594C33.273 43.7664 34.0614 43.44 34.9002 43.44C35.7387 43.44 36.5271 43.7664 37.1198 44.3594L49.5254 56.7649ZM40.5036 61.3458C41.1032 61.9454 41.4296 62.7425 41.4229 63.5904C41.4164 64.4383 41.0773 65.23 40.4684 65.8203C39.2447 67.0064 37.2688 66.9906 36.064 65.7858L27.9604 57.6822L25.8788 55.6006C25.2859 55.0077 24.9595 54.2192 24.9595 53.3807C24.9595 52.5422 25.2859 51.7538 25.8788 51.1608C26.4909 50.5488 27.2949 50.2428 28.0989 50.2428C28.9025 50.2428 29.7063 50.5485 30.3181 51.1602L30.3188 51.1608L40.5036 61.3458ZM25.5965 60.0415L31.0237 65.4687C31.6225 66.0681 31.9487 66.8648 31.942 67.7118C31.9353 68.5596 31.5962 69.3516 30.9874 69.9417C29.7635 71.1275 27.7879 71.1122 26.5831 69.9072L21.159 64.483C19.935 63.2589 19.935 61.2674 21.1587 60.0433C21.7708 59.4312 22.5748 59.1253 23.3788 59.1253C24.1817 59.1257 24.9846 59.431 25.5965 60.0415ZM28.8039 74.1552C30.4326 74.1552 32.0624 73.5512 33.312 72.3401C34.2086 71.4711 34.8198 70.3894 35.1026 69.2056C36.0849 69.756 37.1844 70.0334 38.2848 70.0334C39.9135 70.0334 41.5431 69.4293 42.7927 68.2183C43.7407 67.2996 44.3713 66.1436 44.6298 64.88C45.4768 65.2608 46.3913 65.4525 47.3064 65.4525C48.9351 65.4525 50.5649 64.8484 51.8145 63.6374C53.0712 62.4195 53.7707 60.7852 53.7843 59.0353C53.7888 58.4559 53.7164 57.8884 53.5746 57.3431C54.8945 57.2046 56.1739 56.6622 57.2177 55.7066C58.5369 54.4989 59.2851 52.8512 59.3245 51.0673C59.3637 49.2825 58.6901 47.6044 57.4281 46.3423L54.9876 43.9018L60.3182 38.5712C61.5428 37.3475 63.5342 37.3472 64.7579 38.5712C65.9805 39.7938 65.9819 41.7823 64.7624 43.0067C64.7611 43.0081 64.7597 43.0094 64.7582 43.011C64.106 43.6631 64.106 44.7205 64.7584 45.3724C65.4103 46.0246 66.4677 46.0244 67.1199 45.3724C68.3436 44.1485 70.3355 44.1485 71.5592 45.3724C72.7818 46.5951 72.7831 48.5836 71.5634 49.808C71.5621 49.8093 71.5608 49.8107 71.5594 49.8122H71.5592C70.907 50.4644 70.907 51.5218 71.5592 52.1737C72.2113 52.8259 73.2688 52.8259 73.9207 52.1737C74.5138 51.5805 75.302 51.2541 76.1408 51.2541C76.9793 51.2541 77.7677 51.5805 78.3605 52.1735C79.5846 53.3976 79.5846 55.3893 78.3605 56.6132C77.7083 57.2654 77.7083 58.3228 78.3605 58.9747C79.0126 59.6269 80.07 59.6269 80.7219 58.9747C81.3293 58.3676 82.1305 58.0403 82.995 58.0558C83.8529 58.0701 84.6494 58.4243 85.2374 59.0531C86.3796 60.2739 86.3057 62.2705 85.0726 63.5036L73.0911 75.4851C72.4389 76.1373 72.4389 77.1947 73.0911 77.8466C73.7434 78.4988 74.8006 78.4988 75.4528 77.8466L78.3756 74.9249L81.1087 77.658L63.3868 95.3799L53.8028 85.7959C55.1659 85.3185 56.6172 85.0894 58.082 85.144L61.26 85.2613C64.0595 85.3666 66.822 84.6842 69.2569 83.2928C70.0578 82.8353 70.3361 81.815 69.8784 81.0144C69.4208 80.2135 68.4004 79.9354 67.6001 80.3927C65.7067 81.4746 63.5547 82.0045 61.3836 81.9235L58.2056 81.8061C54.0515 81.6503 49.9822 83.2503 47.0427 86.1898L38.0964 95.1361L20.9245 77.9644L25.5834 73.3056C26.5753 73.8709 27.689 74.1552 28.8039 74.1552ZM50.8633 106.541C47.5894 106.541 44.4023 106.167 41.3358 105.471L42.5674 104.239C43.1859 103.621 43.5268 102.798 43.5268 101.923C43.5268 101.048 43.1861 100.226 42.5674 99.6073L40.4581 97.4981L49.4047 88.5515C49.8135 88.1425 50.2517 87.7686 50.7123 87.4282L61.0253 97.7412L59.1593 99.6073C57.8828 100.884 57.8828 102.962 59.1595 104.239L60.391 105.471C57.3243 106.167 54.1372 106.541 50.8633 106.541ZM93.9473 63.457C93.9473 68.3613 93.1221 73.076 91.6056 77.4717L88.7665 74.6326C88.148 74.0138 87.3253 73.6732 86.4504 73.6732C85.5756 73.6732 84.7529 74.0138 84.1344 74.6326L83.4704 75.2966L80.7373 72.5634L87.4352 65.8655C89.9274 63.3731 90.0363 59.2936 87.6775 56.772C86.4656 55.4761 84.8226 54.7463 83.0516 54.7167C82.9038 54.714 82.7561 54.7167 82.6094 54.724C82.6987 52.9566 82.0699 51.1591 80.7231 49.812C79.4993 48.5883 77.8722 47.9143 76.1417 47.9143C76.0299 47.9143 75.9186 47.9172 75.8079 47.9227C75.8972 46.1553 75.2686 44.3576 73.9216 43.0107C72.5736 41.6628 70.7763 41.0351 69.0064 41.1246C69.0968 39.356 68.4681 37.5572 67.1201 36.2095C64.9697 34.0591 61.6719 33.7404 59.1797 35.2514C57.9841 33.6447 56.079 32.6345 53.9841 32.6345H45.3969C44.4753 32.6345 43.6225 32.9284 42.9216 33.4238C40.8836 33.0351 38.6949 33.622 37.1201 35.1964C35.773 36.5435 35.1449 38.341 35.2344 40.1086C35.1235 40.1031 35.0122 40.0999 34.9004 40.0999C33.1697 40.0999 31.5425 40.7739 30.319 41.9976C29.0951 43.2214 28.4211 44.8485 28.4211 46.5792C28.4211 46.691 28.4242 46.8023 28.4298 46.9132C26.6623 46.8237 24.8648 47.4521 23.5178 48.7991C22.2938 50.0228 21.6201 51.65 21.6201 53.3807C21.6201 54.2636 21.7964 55.119 22.1306 55.9081C20.9087 56.1463 19.7424 56.7375 18.7977 57.682C16.2716 60.2083 16.2716 64.3187 18.7977 66.845L23.0598 71.1071L18.5635 75.6034L17.5927 74.6326C16.9741 74.0138 16.1514 73.6732 15.2766 73.6732C14.4018 73.6732 13.5793 74.0138 12.9608 74.6326L10.1217 77.4717C8.60537 73.076 7.78021 68.3613 7.78021 63.457C7.78021 39.7005 27.1077 20.373 50.8642 20.373C57.2328 20.373 63.2806 21.7667 68.7254 24.258C70.4769 34.9851 77.2565 43.8203 88.2595 49.5025C88.6587 49.7087 89.0967 49.812 89.5347 49.812C89.9724 49.812 90.4104 49.7089 90.8092 49.5027C91.0418 49.3825 91.2685 49.258 91.4972 49.1351C93.0814 53.6181 93.9473 58.4379 93.9473 63.457ZM89.5338 46.4007C84.0075 43.5019 79.6594 39.7646 76.6073 35.2888C73.2895 30.4229 71.6071 24.7997 71.6071 18.5751C71.6071 14.8294 72.2174 11.1515 73.4224 7.63421C76.4959 8.37566 79.5517 6.94487 82.5117 5.55861C84.8413 4.46782 87.25 3.33984 89.5338 3.33984C91.8174 3.33984 94.226 4.46782 96.5555 5.55861C99.5157 6.94509 102.572 8.37588 105.645 7.63421C106.85 11.1513 107.46 14.8296 107.46 18.5751C107.46 24.7997 105.778 30.4229 102.46 35.2888C99.4079 39.7644 95.0599 43.5019 89.5338 46.4007Z" fill="#141414"/>
<path id="Vector_2" d="M101.057 20.7422C101.938 20.4668 102.428 19.5299 102.152 18.6497C100.417 13.1065 95.3463 9.38208 89.5336 9.38208C82.2436 9.38208 76.3125 15.313 76.3125 22.603C76.3125 29.8929 82.2436 35.8238 89.5336 35.8238C94.9426 35.8238 99.7522 32.5837 101.786 27.5691C102.133 26.7145 101.721 25.7406 100.867 25.394C100.012 25.0468 99.0379 25.459 98.6912 26.3135C97.1707 30.0617 93.5759 32.4838 89.5334 32.4838C84.0848 32.4838 79.6521 28.0511 79.6521 22.6027C79.6521 17.1543 84.0848 12.7217 89.5334 12.7217C93.8781 12.7217 97.6681 15.5049 98.9647 19.6472C99.2403 20.5276 100.178 21.0176 101.057 20.7422Z" fill="#141414"/>
<path id="Vector_3" d="M93.9092 18.5428L88.7525 23.6998L85.1575 20.1048C84.5051 19.4526 83.4479 19.4526 82.7958 20.1048C82.1436 20.7569 82.1436 21.8143 82.7958 22.4663L87.5715 27.242C87.8977 27.568 88.3252 27.7312 88.7525 27.7312C89.1798 27.7312 89.6073 27.5682 89.9335 27.242L96.2711 20.9043C96.9233 20.2522 96.9233 19.1948 96.2711 18.5428C95.6188 17.8907 94.5616 17.8907 93.9092 18.5428Z" fill="#141414"/>
</g>
</g>
</g>
</svg>
