<svg width="89" height="24" viewBox="0 0 89 24" fill="none" xmlns="http://www.w3.org/2000/svg">
<path d="M0.36 23V0.599998H3.56V20.216H15.688V23H0.36ZM27.7858 23.256C26.0791 23.256 24.4897 22.968 23.0177 22.392C21.5671 21.816 20.3084 21.016 19.2417 19.992C18.1751 18.9467 17.3431 17.7307 16.7457 16.344C16.1484 14.9573 15.8497 13.4427 15.8497 11.8C15.8497 10.1573 16.1484 8.64267 16.7457 7.256C17.3431 5.86933 18.1751 4.664 19.2417 3.64C20.3084 2.59467 21.5671 1.784 23.0177 1.208C24.4684 0.631999 26.0577 0.344 27.7858 0.344C29.4924 0.344 31.0604 0.631999 32.4897 1.208C33.9404 1.76267 35.1991 2.56267 36.2658 3.608C37.3538 4.632 38.1858 5.83733 38.7618 7.224C39.3591 8.61067 39.6578 10.136 39.6578 11.8C39.6578 13.464 39.3591 14.9893 38.7618 16.376C38.1858 17.7627 37.3538 18.9787 36.2658 20.024C35.1991 21.048 33.9404 21.848 32.4897 22.424C31.0604 22.9787 29.4924 23.256 27.7858 23.256ZM27.7858 20.408C29.0231 20.408 30.1644 20.1947 31.2097 19.768C32.2764 19.3413 33.1937 18.744 33.9618 17.976C34.7511 17.1867 35.3591 16.2693 35.7857 15.224C36.2338 14.1787 36.4578 13.0373 36.4578 11.8C36.4578 10.5627 36.2338 9.42133 35.7857 8.376C35.3591 7.33067 34.7511 6.424 33.9618 5.656C33.1937 4.86666 32.2764 4.25867 31.2097 3.832C30.1644 3.40533 29.0231 3.192 27.7858 3.192C26.5271 3.192 25.3644 3.40533 24.2977 3.832C23.2524 4.25867 22.3351 4.86666 21.5457 5.656C20.7564 6.424 20.1377 7.33067 19.6897 8.376C19.2631 9.42133 19.0497 10.5627 19.0497 11.8C19.0497 13.0373 19.2631 14.1787 19.6897 15.224C20.1377 16.2693 20.7564 17.1867 21.5457 17.976C22.3351 18.744 23.2524 19.3413 24.2977 19.768C25.3644 20.1947 26.5271 20.408 27.7858 20.408ZM53.3807 23.256C51.6527 23.256 50.0634 22.9787 48.6127 22.424C47.1621 21.848 45.9034 21.048 44.8367 20.024C43.7701 18.9787 42.9381 17.7627 42.3407 16.376C41.7434 14.9893 41.4447 13.464 41.4447 11.8C41.4447 10.136 41.7434 8.61067 42.3407 7.224C42.9381 5.83733 43.7701 4.632 44.8367 3.608C45.9247 2.56267 47.1941 1.76267 48.6447 1.208C50.0954 0.631999 51.6954 0.344 53.4447 0.344C55.2154 0.344 56.8368 0.631999 58.3088 1.208C59.7808 1.784 61.0288 2.648 62.0527 3.8L60.0688 5.784C59.1514 4.888 58.1487 4.23733 57.0607 3.832C55.9941 3.40533 54.8314 3.192 53.5727 3.192C52.2927 3.192 51.0981 3.40533 49.9887 3.832C48.9007 4.25867 47.9514 4.856 47.1407 5.624C46.3514 6.392 45.7327 7.30933 45.2847 8.376C44.8581 9.42133 44.6447 10.5627 44.6447 11.8C44.6447 13.016 44.8581 14.1573 45.2847 15.224C45.7327 16.2693 46.3514 17.1867 47.1407 17.976C47.9514 18.744 48.9007 19.3413 49.9887 19.768C51.0767 20.1947 52.2607 20.408 53.5407 20.408C54.7354 20.408 55.8767 20.2267 56.9648 19.864C58.0741 19.48 59.0981 18.8507 60.0367 17.976L61.8608 20.408C60.7514 21.3467 59.4501 22.0613 57.9567 22.552C56.4847 23.0213 54.9594 23.256 53.3807 23.256ZM58.7887 19.992V11.672H61.8608V20.408L58.7887 19.992ZM76.8195 23.256C75.1128 23.256 73.5235 22.968 72.0515 22.392C70.6008 21.816 69.3422 21.016 68.2755 19.992C67.2088 18.9467 66.3768 17.7307 65.7795 16.344C65.1822 14.9573 64.8835 13.4427 64.8835 11.8C64.8835 10.1573 65.1822 8.64267 65.7795 7.256C66.3768 5.86933 67.2088 4.664 68.2755 3.64C69.3422 2.59467 70.6008 1.784 72.0515 1.208C73.5022 0.631999 75.0915 0.344 76.8195 0.344C78.5262 0.344 80.0942 0.631999 81.5235 1.208C82.9742 1.76267 84.2328 2.56267 85.2995 3.608C86.3875 4.632 87.2195 5.83733 87.7955 7.224C88.3928 8.61067 88.6915 10.136 88.6915 11.8C88.6915 13.464 88.3928 14.9893 87.7955 16.376C87.2195 17.7627 86.3875 18.9787 85.2995 20.024C84.2328 21.048 82.9742 21.848 81.5235 22.424C80.0942 22.9787 78.5262 23.256 76.8195 23.256ZM76.8195 20.408C78.0568 20.408 79.1982 20.1947 80.2435 19.768C81.3102 19.3413 82.2275 18.744 82.9955 17.976C83.7848 17.1867 84.3928 16.2693 84.8195 15.224C85.2675 14.1787 85.4915 13.0373 85.4915 11.8C85.4915 10.5627 85.2675 9.42133 84.8195 8.376C84.3928 7.33067 83.7848 6.424 82.9955 5.656C82.2275 4.86666 81.3102 4.25867 80.2435 3.832C79.1982 3.40533 78.0568 3.192 76.8195 3.192C75.5608 3.192 74.3982 3.40533 73.3315 3.832C72.2862 4.25867 71.3688 4.86666 70.5795 5.656C69.7902 6.424 69.1715 7.33067 68.7235 8.376C68.2968 9.42133 68.0835 10.5627 68.0835 11.8C68.0835 13.0373 68.2968 14.1787 68.7235 15.224C69.1715 16.2693 69.7902 17.1867 70.5795 17.976C71.3688 18.744 72.2862 19.3413 73.3315 19.768C74.3982 20.1947 75.5608 20.408 76.8195 20.408Z" fill="#FAFAFA"/>
</svg>
