<svg width="14" height="14" viewBox="0 0 14 14" fill="none" xmlns="http://www.w3.org/2000/svg">
<g clip-path="url(#clip0_1056_3510)">
<rect width="14" height="14" fill="white" fill-opacity="0.01"/>
<g clip-path="url(#clip1_1056_3510)">
<path fill-rule="evenodd" clip-rule="evenodd" d="M8.74947 0.416812L8.69863 0.416809H8.69859C7.91706 0.416778 7.25606 0.416751 6.72931 0.48757C6.1696 0.562822 5.65057 0.730187 5.23171 1.14904C4.86686 1.5139 4.6917 1.95623 4.60317 2.43823C4.51857 2.89878 4.504 3.45091 4.5005 4.0793C4.49819 4.49351 4.83211 4.83116 5.24631 4.83347C5.66052 4.83577 5.99817 4.50186 6.00048 4.08765C6.00404 3.44729 6.02113 3.02147 6.07849 2.70922C6.1319 2.41841 6.20899 2.29308 6.29237 2.20971C6.38607 2.116 6.5358 2.02708 6.92918 1.97419C7.34414 1.9184 7.90331 1.91681 8.74947 1.91681H9.33281C10.179 1.91681 10.7381 1.9184 11.1531 1.97419C11.5465 2.02708 11.6962 2.116 11.7899 2.20971C11.8836 2.30341 11.9725 2.45314 12.0254 2.84652C12.0812 3.26148 12.0828 3.82065 12.0828 4.66681V9.33348C12.0828 10.1796 12.0812 10.7388 12.0254 11.1538C11.9725 11.5472 11.8836 11.6969 11.7899 11.7906C11.6962 11.8843 11.5465 11.9732 11.1531 12.0261C10.7381 12.0819 10.179 12.0835 9.33281 12.0835H8.74947C7.90331 12.0835 7.34414 12.0819 6.92918 12.0261C6.5358 11.9732 6.38607 11.8843 6.29237 11.7906C6.20899 11.7072 6.1319 11.5819 6.07849 11.2911C6.02113 10.9788 6.00404 10.553 6.00048 9.91264C5.99817 9.49843 5.66052 9.16452 5.24631 9.16682C4.83211 9.16913 4.49819 9.50678 4.5005 9.92099C4.504 10.5494 4.51857 11.1015 4.60317 11.5621C4.6917 12.0441 4.86686 12.4864 5.23171 12.8512C5.65057 13.2701 6.1696 13.4375 6.72931 13.5127C7.25607 13.5835 7.91708 13.5835 8.69863 13.5835H8.69863L8.74947 13.5835H9.33281L9.38365 13.5835H9.38366C10.1652 13.5835 10.8262 13.5835 11.353 13.5127C11.9127 13.4375 12.4317 13.2701 12.8506 12.8512C13.2694 12.4324 13.4368 11.9134 13.5121 11.3536C13.5829 10.8269 13.5828 10.1659 13.5828 9.38433V9.38432L13.5828 9.33348V4.66681L13.5828 4.61597C13.5828 3.83442 13.5829 3.17341 13.5121 2.64665C13.4368 2.08693 13.2694 1.5679 12.8506 1.14904C12.4317 0.730187 11.9127 0.562822 11.353 0.48757C10.8262 0.416751 10.1652 0.416778 9.38369 0.416809H9.38365L9.33281 0.416812H8.74947ZM8.74935 6.25015C9.16356 6.25015 9.49935 6.58593 9.49935 7.00015C9.49935 7.41436 9.16356 7.75015 8.74935 7.75015H3.19346L3.69578 8.1807C4.01027 8.45027 4.04669 8.92374 3.77712 9.23824C3.50756 9.55273 3.03408 9.58915 2.71959 9.31959L0.677922 7.56959C0.511688 7.4271 0.416016 7.21909 0.416016 7.00015C0.416016 6.7812 0.511688 6.57319 0.677922 6.4307L2.71959 4.6807C3.03408 4.41114 3.50756 4.44756 3.77712 4.76205C4.04669 5.07655 4.01027 5.55002 3.69578 5.81959L3.19346 6.25015H8.74935Z" fill="black" fill-opacity="0.85"/>
</g>
</g>
<defs>
<clipPath id="clip0_1056_3510">
<rect width="14" height="14" fill="white"/>
</clipPath>
<clipPath id="clip1_1056_3510">
<rect width="14" height="14" fill="white"/>
</clipPath>
</defs>
</svg>
