<svg width="14" height="14" viewBox="0 0 14 14" fill="none" xmlns="http://www.w3.org/2000/svg">
<g clip-path="url(#clip0_1056_5356)">
<rect width="14" height="14" fill="white" fill-opacity="0.01"/>
<path fill-rule="evenodd" clip-rule="evenodd" d="M5.77948 1.58344H5.83268H8.16602H8.21922H8.21924C9.27389 1.58341 10.1408 1.58339 10.8263 1.67555C11.5448 1.77216 12.1753 1.98224 12.6796 2.48652C13.1839 2.99081 13.394 3.6213 13.4906 4.33987C13.5446 4.74188 13.567 5.20627 13.5762 5.73434C13.5805 5.76676 13.5827 5.79984 13.5827 5.83344C13.5827 5.85942 13.5814 5.88509 13.5788 5.91039C13.5827 6.23318 13.5827 6.57859 13.5827 6.94691V7.0001C13.5827 7.41432 13.2469 7.7501 12.8327 7.7501C12.4185 7.7501 12.0827 7.41432 12.0827 7.0001C12.0827 6.85541 12.0827 6.71664 12.0824 6.58344H1.91626C1.91604 6.71664 1.91602 6.85541 1.91602 7.0001C1.91602 8.12125 1.91761 8.88666 1.99476 9.46047C2.069 10.0127 2.20063 10.2739 2.37976 10.453C2.5589 10.6322 2.82009 10.7638 3.37232 10.838C3.94613 10.9152 4.71154 10.9168 5.83268 10.9168H8.16602C8.58023 10.9168 8.91602 11.2526 8.91602 11.6668C8.91602 12.081 8.58023 12.4168 8.16602 12.4168H5.83268H5.77949C4.72483 12.4168 3.85795 12.4168 3.17245 12.3247C2.45388 12.228 1.82339 12.018 1.3191 11.5137C0.814819 11.0094 0.604741 10.3789 0.508132 9.66034C0.41597 8.97485 0.415991 8.10797 0.416016 7.05333V7.0533V7.0001V6.9469V6.94688C0.416007 6.57858 0.415999 6.23318 0.419917 5.91041C0.417337 5.8851 0.416016 5.85942 0.416016 5.83344C0.416016 5.79984 0.418225 5.76676 0.422506 5.73433C0.431739 5.20627 0.454084 4.74188 0.508132 4.33987C0.604741 3.6213 0.814819 2.99081 1.3191 2.48652C1.82339 1.98224 2.45388 1.77216 3.17245 1.67555C3.85794 1.58339 4.72481 1.58341 5.77946 1.58344H5.77948ZM1.94535 5.08344H12.0534C12.0419 4.88394 12.026 4.70399 12.0039 4.53974C11.9297 3.98751 11.7981 3.72632 11.6189 3.54718C11.4398 3.36805 11.1786 3.23642 10.6264 3.16218C10.0526 3.08503 9.28716 3.08344 8.16602 3.08344H5.83268C4.71154 3.08344 3.94613 3.08503 3.37232 3.16218C2.82009 3.23642 2.5589 3.36805 2.37976 3.54718C2.20063 3.72632 2.069 3.98751 1.99476 4.53974C1.97267 4.70399 1.95678 4.88394 1.94535 5.08344ZM11.0827 12.4168C11.2816 12.4168 11.4724 12.3378 11.613 12.1971L12.7797 11.0304C13.0726 10.7375 13.0726 10.2627 12.7797 9.96977C12.5222 9.71232 12.1242 9.68117 11.8327 9.87632V8.16677C11.8327 7.75256 11.4969 7.41677 11.0827 7.41677C10.6685 7.41677 10.3327 7.75256 10.3327 8.16677V9.87632C10.0412 9.68117 9.64314 9.71232 9.38569 9.96977C9.09279 10.2627 9.09279 10.7375 9.38569 11.0304L10.5524 12.1971C10.693 12.3378 10.8838 12.4168 11.0827 12.4168ZM3.49935 8.58344C3.08514 8.58344 2.74935 8.91922 2.74935 9.33344C2.74935 9.74765 3.08514 10.0834 3.49935 10.0834H5.83268C6.18618 10.0834 6.48256 9.83887 6.56185 9.50972C6.64114 9.83887 6.93752 10.0834 7.29102 10.0834H7.58268C7.9969 10.0834 8.33268 9.74765 8.33268 9.33344C8.33268 8.91922 7.9969 8.58344 7.58268 8.58344H7.29102C6.93752 8.58344 6.64114 8.828 6.56185 9.15716C6.48256 8.828 6.18618 8.58344 5.83268 8.58344H3.49935Z" fill="white"/>
</g>
<defs>
<clipPath id="clip0_1056_5356">
<rect width="14" height="14" fill="white"/>
</clipPath>
</defs>
</svg>
